# xmcd CD database file
#
# Track frame offsets:
#	150
#	30250
#	60795
#	94113
#
# Disc length: 2374 seconds
#
# Revision: 1
# Processed by: cddbd v1.5.2PL0 Copyright (c) Steve Scherf et al.
# Submitted via: CDex 1.81
#
DISCID=1e094404
DTITLE=Mingus, Charles - Black Saint and the Sinner Lady
DYEAR=1963
DGENRE=Jazz
TTITLE0=Solo Dancer
TTITLE1=Duet Solo Dancers
TTITLE2=Group Dancers
TTITLE3=Trio and Group Dancers
EXTD=YEAR: 1963
EXTT0=
EXTT1=
EXTT2=
EXTT3=
PLAYORDER=
